<?xml version="1.0" encoding="utf-8"?>
<!-- Generator: Adobe Illustrator 22.1.0, SVG Export Plug-In . SVG Version: 6.00 Build 0)  -->
<svg version="1.1" id="Capa_1" xmlns="http://www.w3.org/2000/svg" xmlns:xlink="http://www.w3.org/1999/xlink" x="0px" y="0px"
	 viewBox="0 0 276 184" style="enable-background:new 0 0 276 184;" xml:space="preserve">
<style type="text/css">
	.st0{fill:#37474F;}
</style>
<path class="st0" d="M8.6,96.8H5.4c0,3.1-1.6,6.3-5.3,6.3H0v3.2h0.1C5,106.4,8.6,102.4,8.6,96.8z M47.5,92
	c0-12.5-10.2-22.7-22.7-22.7H0v5h24.8c9.8,0,17.7,8,17.7,17.7s-8,17.7-17.7,17.7H0v5h24.8C37.3,114.7,47.5,104.5,47.5,92z
	 M29.4,96.6c2.6,0,4.8-2.1,4.8-4.8c0-2.6-2.1-4.8-4.8-4.8s-4.9,2.2-4.8,4.8C24.6,94.4,26.8,96.6,29.4,96.6z M163.4,161.5h-50
	c-12.5,0-22.6,10.1-22.7,22.5h5c0.1-9.7,8-17.5,17.7-17.5h50c9.7,0,17.6,7.8,17.7,17.5h5C186,171.6,175.9,161.5,163.4,161.5z
	 M109.1,179.2c-2.6,0-4.8,2.1-4.8,4.8h9.6C113.9,181.4,111.8,179.2,109.1,179.2z M168,179.2c-2.7,0-4.9,2.2-4.8,4.8h9.6
	C172.8,181.4,170.7,179.2,168,179.2z M167.6,4.6c2.5,0,4.7-2,4.8-4.6h-9.6C162.9,2.5,165,4.6,167.6,4.6z M108.7,4.6
	c2.5,0,4.7-2,4.8-4.6h-9.6C104.1,2.6,106.2,4.6,108.7,4.6z M138.3,11.1c-3.8,0-5.5-3.3-5.5-6.3h-3.2c0,5.5,3.7,9.5,8.7,9.5
	c4.9,0.1,8.5-3.9,8.5-9.5h-3.2C143.6,7.9,142,11.1,138.3,11.1z M113,22.7h50c12.5,0,22.7-10.2,22.7-22.7h-5c0,9.8-8,17.7-17.7,17.7
	h-50c-9.8,0-17.7-7.9-17.7-17.7h-5C90.3,12.5,100.5,22.7,113,22.7z M276,109.4h-25c-9.8,0-17.7-8-17.7-17.7S241.3,74,251,74h25v-5
	h-25c-12.5,0-22.7,10.2-22.7,22.7s10.2,22.7,22.7,22.7h25V109.4z M270.8,96.5h-3.2c0,5.4,3.6,9.3,8.4,9.5v-3.2
	C272.4,102.6,270.8,99.4,270.8,96.5z M246.7,86.7c2.7,0,4.8,2.1,4.8,4.8c0,2.7-2.1,4.8-4.8,4.8s-4.8-2.1-4.8-4.8
	C241.9,88.8,244,86.7,246.7,86.7z"/>
</svg>
