<?xml version="1.0" encoding="utf-8"?>
<!-- Generator: Adobe Illustrator 22.1.0, SVG Export Plug-In . SVG Version: 6.00 Build 0)  -->
<svg version="1.1" id="Capa_1" xmlns="http://www.w3.org/2000/svg" xmlns:xlink="http://www.w3.org/1999/xlink" x="0px" y="0px"
	 viewBox="0 0 195 130" style="enable-background:new 0 0 195 130;" xml:space="preserve">
<style type="text/css">
	.st0{fill:#37474F;}
</style>
<g>
	<path class="st0" d="M8.6,69.7H5.4c0,3.1-1.6,6.3-5.3,6.3c0,0-0.1,0-0.1,0v3.2c0,0,0.1,0,0.1,0C5,79.3,8.6,75.3,8.6,69.7z"/>
	<path class="st0" d="M122.9,107.5h-50c-12.5,0-22.6,10.1-22.7,22.5h5c0.1-9.7,8-17.5,17.7-17.5h50c9.7,0,17.6,7.8,17.7,17.5h5
		C145.5,117.6,135.4,107.5,122.9,107.5z"/>
	<path class="st0" d="M47.5,64.9c0-12.5-10.2-22.7-22.7-22.7H0v5h24.8c9.8,0,17.7,8,17.7,17.7s-8,17.7-17.7,17.7H0v5h24.8
		C37.3,87.6,47.5,77.4,47.5,64.9z"/>
	<path class="st0" d="M29.4,69.5c2.6,0,4.8-2.1,4.8-4.8c0-2.6-2.1-4.8-4.8-4.8s-4.9,2.2-4.8,4.8C24.6,67.3,26.8,69.5,29.4,69.5z"/>
	<path class="st0" d="M68.6,125.2c-2.6,0-4.8,2.1-4.8,4.8h9.6C73.4,127.4,71.3,125.2,68.6,125.2z"/>
	<path class="st0" d="M127.5,125.2c-2.7,0-4.9,2.2-4.8,4.8h9.6C132.3,127.4,130.2,125.2,127.5,125.2z"/>
	<path class="st0" d="M127.3,4.6c2.5,0,4.7-2,4.8-4.6h-9.6C122.6,2.5,124.7,4.6,127.3,4.6z"/>
	<path class="st0" d="M68.4,4.6c2.5,0,4.7-2,4.8-4.6h-9.6C63.8,2.6,65.9,4.6,68.4,4.6z"/>
	<path class="st0" d="M98,11.1c-3.8,0-5.5-3.3-5.5-6.3h-3.2c0,5.5,3.7,9.5,8.7,9.5c4.9,0.1,8.5-3.9,8.5-9.5h-3.2
		C103.3,7.9,101.7,11.1,98,11.1z"/>
	<path class="st0" d="M72.7,22.7h50c12.5,0,22.7-10.2,22.7-22.7h-5c0,9.8-8,17.7-17.7,17.7h-50C62.9,17.7,55,9.8,55,0h-5
		C50,12.5,60.2,22.7,72.7,22.7z"/>
	<path class="st0" d="M195.2,82.8h-25c-9.8,0-17.7-8-17.7-17.7s8-17.7,17.7-17.7h25v-5h-25c-12.5,0-22.7,10.2-22.7,22.7
		c0,12.5,10.2,22.7,22.7,22.7h25V82.8z"/>
	<path class="st0" d="M190,69.9h-3.2c0,5.4,3.6,9.3,8.4,9.5v-3.2C191.6,76,190,72.8,190,69.9z"/>
	<ellipse class="st0" cx="165.9" cy="64.9" rx="4.8" ry="4.8"/>
</g>
</svg>
