<?xml version="1.0" encoding="utf-8"?>
<!-- Generator: Adobe Illustrator 22.1.0, SVG Export Plug-In . SVG Version: 6.00 Build 0)  -->
<svg version="1.1" id="Capa_1" xmlns="http://www.w3.org/2000/svg" xmlns:xlink="http://www.w3.org/1999/xlink" x="0px" y="0px"
	 viewBox="0 0 800 836.5" style="enable-background:new 0 0 800 836.5;" xml:space="preserve">
<style type="text/css">
	.st0{fill:#4CAF50;stroke:#000000;stroke-width:20;stroke-linejoin:round;stroke-miterlimit:10;}
	.st1{fill:#4CAF50;stroke:#000000;stroke-width:20;stroke-miterlimit:10;}
	.st2{fill:none;stroke:#000000;stroke-width:20;stroke-miterlimit:10;}
	.st3{fill:#010101;}
</style>
<path class="st0" d="M250,55.5h300c75.1,0,136,60.9,136,136l0,0c0,75.1-60.9,136-136,136H250c-75.1,0-136-60.9-136-136l0,0
	C114,116.4,174.9,55.5,250,55.5z"/>
<circle cx="576.5" cy="191" r="29.5"/>
<circle cx="224.5" cy="191" r="29.5"/>
<path class="st1" d="M234,412.5h332c5.5,0,10,4.5,10,10v213.8c0,3.3-1.6,6.4-4.4,8.3L405.1,757.7c-3.4,2.3-7.9,2.3-11.3,0
	l-165.4-112c-2.8-1.9-4.4-5-4.4-8.3V422.5C224,417,228.5,412.5,234,412.5z"/>
<path class="st2" d="M443,220.5c0,26.2-15.8,47.5-42,47.5s-43-21.3-43-47.5"/>
<path class="st1" d="M705.2,580.1l-67.9-67.9c-8.4-8.4-8.4-22,0-30.4l0,0c8.4-8.4,22-8.4,30.4,0l67.9,67.9c8.4,8.4,8.4,22,0,30.4
	l0,0C727.2,588.5,713.6,588.5,705.2,580.1z"/>
<path class="st1" d="M162.6,512.3l-67.9,67.9c-8.4,8.4-22,8.4-30.4,0l0,0c-8.4-8.4-8.4-22,0-30.4l67.9-67.9c8.4-8.4,22-8.4,30.4,0
	l0,0C171,490.3,171,503.9,162.6,512.3z"/>
<path class="st3" d="M345.5,593c0,9.2,7.7,16.6,17.2,16.6c4.7,0,9.2-1.7,12.3-4.8l31.4-30.3l8.4,8.1c-1.1,4,0,8.5,3.2,11.6
	l12.2,11.8c4.9,4.7,12.7,4.7,17.5,0.1c4.8-4.6,4.7-12.2-0.1-16.9l-12.2-11.8c-3.3-3.2-7.9-4.2-12-3.1l-8.4-8.1l5.4-5.2
	c11.5,2.8,24.2-0.1,33.2-8.6c6.2-5.8,9.6-13.3,10-20.9v-0.4c0-2.6-2.2-4.7-4.9-4.7c-1.4,0-2.6,0.5-3.5,1.4l-1.4,1.4l-5,4.7
	c-3.1,2.9-7.6,4.7-12.4,4.7s-9-2-12.1-5c-3.1-3-5.2-7.1-5.2-11.7c0-4.6,1.8-8.9,4.8-11.9l4.9-4.8l1.4-1.4c0.9-0.9,1.4-2.1,1.4-3.4
	c0-2.6-2.2-4.8-4.8-4.8h-0.4c-7.9,0.4-15.6,3.7-21.7,9.7c-8.8,8.7-11.8,20.9-8.9,32l-5.4,5.2l-22.8-21.9v-6l-14.7-7.1l-7.4,7.1
	l7.4,14.3h6.2l22.7,21.9l-31.4,30.3C347.3,584.1,345.5,588.4,345.5,593z M357.8,591.8c0-3.3,2.8-5.9,6.1-5.9c3.4,0,6.1,2.7,6.1,5.9
	s-2.8,5.9-6.1,5.9C360.5,597.7,357.8,595.1,357.8,591.8z"/>
</svg>
