<?xml version="1.0" encoding="utf-8"?>
<!-- Generator: Adobe Illustrator 22.1.0, SVG Export Plug-In . SVG Version: 6.00 Build 0)  -->
<svg version="1.1" id="Capa_1" xmlns="http://www.w3.org/2000/svg" xmlns:xlink="http://www.w3.org/1999/xlink" x="0px" y="0px"
	 viewBox="0 0 625 786" style="enable-background:new 0 0 625 786;" xml:space="preserve">
<style type="text/css">
	.st0{fill:#4CAF50;stroke:#000000;stroke-width:50;stroke-miterlimit:10;}
</style>
<path class="st0" d="M162,27h300c75.1,0,136,60.9,136,136l0,0c0,75.1-60.9,136-136,136H162c-75.1,0-136-60.9-136-136l0,0
	C26,87.9,86.9,27,162,27z"/>
<path class="st0" d="M146,413h332c5.5,0,10,4.5,10,10v213.8c0,3.3-1.6,6.4-4.4,8.3L317.1,758.2c-3.4,2.3-7.9,2.3-11.3,0l-165.4-112
	c-2.8-1.9-4.4-5-4.4-8.3V423C136,417.5,140.5,413,146,413z"/>
</svg>
